# xmcd
# 
# Track frame offsets:
#     150
#     7727
#     22497
#     39332
#     45710
#     63170
#     80420
#     98120
#     110390
#     119825
#     132410
#     143327
#     147625
#     179157
#     188407
#     201515
#     213350
#     226202
#     236465
#     250500
#     253352
#     266850
#     297535
#     311830
# 
# Disc length: 4394
# 
# Revision: 2
# Processed by: cddbd v1.5.2PL0 Copyright (c) Steve Scherf et al.
# Submitted via: fre:ac v1.0.31
# 
DISCID=6d112818
DTITLE=The Nitty Gritty Dirt Band - Stars and Stripes Forever
DYEAR=0
DGENRE=Country
TTITLE0=Jambalaya (On the Bayou)
TTITLE1=Dirt Band Interview
TTITLE2=Cosmic Cowboy (Part 1)
TTITLE3=Aluminum Record Award
TTITLE4=Fish Song
TTITLE5=Mr. Bojangles
TTITLE6=Vassar Clements Interview
TTITLE7=Listen to the Mockingbird
TTITLE8=The Sheik of Araby
TTITLE9=Resign Yourself to Me
TTITLE10=Dixie Hoedown
TTITLE11=Cripple Creek
TTITLE12=Mountain Whippoorwill (or, How Hillbilly Jim Won the Great Fiddler's Prize)
TTITLE13=Honky Tonkin'
TTITLE14=House at Pooh Corner
TTITLE15=Buy for me the Rain
TTITLE16=Oh Boy
TTITLE17=Teardrops in my Eyes
TTITLE18=Glocoat Blues
TTITLE19=Stars and Stripes Forever
TTITLE20=Battle of New Orleans
TTITLE21=It Came from the 50's (Blast from the Past)
TTITLE22=My True Story
TTITLE23=Diggy Liggy Lo
EXTD=
EXTT0=
EXTT1=
EXTT2=
EXTT3=
EXTT4=
EXTT5=
EXTT6=
EXTT7=
EXTT8=
EXTT9=
EXTT10=
EXTT11=
EXTT12=
EXTT13=
EXTT14=
EXTT15=
EXTT16=
EXTT17=
EXTT18=
EXTT19=
EXTT20=
EXTT21=
EXTT22=
EXTT23=
PLAYORDER=
